<svg id="graphics" xmlns="http://www.w3.org/2000/svg" viewBox="0 0 254.89 157.12"><defs><style>.cls-1{fill:#231f20;}</style></defs><title>panda</title><path class="cls-1" d="M205.77,92.19c4.42-3.07,5.36-7.5,3.35-12.09C206.25,73.54,198,68,188.5,69.2c-12.34,1.54-17.61,10-19.84,16.43-4.66,13.38,4.85,31,21.43,24.15C197.66,106.65,194.67,99.91,205.77,92.19Z"/><path class="cls-1" d="M220.76,102.34c-3.41,4.71,7,13.68,10.46,9.28,4.28-5.41,5.9-13.43-.94-13.4C230.28,98.22,223.56,98.48,220.76,102.34Z"/><path class="cls-1" d="M239.87,94.8c-4.25-6.67-9.57-7.71-11.24-8.51a59.73,59.73,0,0,0-29-49.56c1.74-8.32-3.49-19.88-17.13-18.85-8.34.64-13.09,5.22-16.1,10.17-1.33.05-2.66.14-4,.28-3.09-7.87-11.28-10.77-19.72-4.88a80.5,80.5,0,0,0-119,5.93C20,26,14.4,23.41,7.35,28c-11.95,7.84-7.86,25,1.82,28.23A78.33,78.33,0,0,0,5.68,78.65C3.19,83.3,1.36,89.63,1,98.34.1,118.26,6.58,155.7,43.88,157.07c8.15.3,15.3-.81,21.23-3.29,10.28,0,49.48,0,63.47,0A57.8,57.8,0,0,0,148.12,157c23.18,0,39.29,1.75,44.06-10.77,8-1.36,19.28-4.44,29.66-11.39,14.77-.55,25.26-1.52,30.22-8.63C258.15,117.47,254.58,100.38,239.87,94.8ZM64,148.67c-10.46,5.29-19.07,5.25-22.68.28-4.91-6.73.82-19.4,13.37-26.4,10.28-5.73,17.33-4.44,20.67-.88C82.15,128.93,76.75,142.21,64,148.67Zm173.82-39.45c-2.25,9-9.87,15.24-14.13,18.27-10.48,7.43-21.78,11.92-30.4,13.61.75-9.86-5.54-21.9-19.78-24.44-12.5-2.23-17.85-.53-31.15-2.6-10-1.57-24.17-12.67-27.12-30.82-2-12.4-1.35-20.19-8.06-21.51-10.21-2-16.36,17.8-15.34,32.42C93.48,117.6,102,138.21,118.78,149H73.11c13.87-11.28,13.83-30.38,6.16-40.33-6.75-8.75-17-7.83-24.44-5.55-2.38-7.74-4.43-15.19-5.27-18.69-4.33-18.08-24.8-25.61-38.7-12.58A75.56,75.56,0,0,1,139.15,26.7c-4.45,5.52-4.39,12.74-4.38,17.41.06,14,12.33,15,16.12,8.68,4.48-7.46,2.12-5.16,9.85-12.48A9.43,9.43,0,0,0,163.37,33a55.62,55.62,0,0,1,55.9,32.89c1.73,5.82-2.59,9.15-2.12,15.77.33,4.75,3.75,6.53,8.77,8.56a17.44,17.44,0,0,0,2.86,1.24C235.57,93.85,239.49,102.46,237.82,109.22Z"/></svg>